<?xml version="1.0" encoding="iso-8859-1"?>
<!-- Generator: Adobe Illustrator 19.0.0, SVG Export Plug-In . SVG Version: 6.00 Build 0)  -->
<svg version="1.1" id="Capa_1" xmlns="http://www.w3.org/2000/svg" xmlns:xlink="http://www.w3.org/1999/xlink" x="0px" y="0px"
	 viewBox="0 0 512 512" style="enable-background:new 0 0 512 512;" xml:space="preserve">
<path style="fill:#FF1A4B;" d="M433.531,177.531c0,40.043-28.086,106.04-83.477,196.141
	c-40.503,65.887-81.586,121.479-81.996,122.039L256,512l-12.057-16.289c-0.41-0.56-41.493-56.152-81.996-122.039
	c-55.391-90.101-83.477-156.098-83.477-196.141C78.469,79.645,158.105,0,256,0S433.531,79.645,433.531,177.531z"/>
<path style="fill:#FFDBA9;" d="M357.517,174.779c0,55.982-45.536,101.527-101.518,101.527s-101.517-45.546-101.517-101.527
	c0-55.972,45.536-101.518,101.517-101.518S357.517,118.807,357.517,174.779z"/>
<path style="fill:#D5243E;" d="M433.531,177.531c0,40.043-28.086,106.04-83.477,196.141
	c-40.503,65.887-81.586,121.479-81.996,122.039L256,512V0C353.895,0,433.531,79.645,433.531,177.531z"/>
<path style="fill:#FFC473;" d="M357.517,174.779c0,55.982-45.536,101.527-101.518,101.527V73.261
	C311.982,73.261,357.517,118.807,357.517,174.779z"/>
<g>
</g>
<g>
</g>
<g>
</g>
<g>
</g>
<g>
</g>
<g>
</g>
<g>
</g>
<g>
</g>
<g>
</g>
<g>
</g>
<g>
</g>
<g>
</g>
<g>
</g>
<g>
</g>
<g>
</g>
</svg>
